<mxfile host="app.diagrams.net" modified="2024-01-26T06:52:28.299Z" agent="Mozilla/5.0 (Windows NT 10.0; Win64; x64; rv:121.0) Gecko/20100101 Firefox/121.0" etag="CyQMswOyI8JKhMyKQq1V" version="23.0.1" type="device">
  <diagram id="C5RBs43oDa-KdzZeNtuy" name="Page-1">
    <mxGraphModel dx="2369" dy="1263" grid="1" gridSize="10" guides="1" tooltips="1" connect="1" arrows="1" fold="1" page="1" pageScale="1" pageWidth="827" pageHeight="1169" math="0" shadow="0">
      <root>
        <mxCell id="WIyWlLk6GJQsqaUBKTNV-0" />
        <mxCell id="WIyWlLk6GJQsqaUBKTNV-1" parent="WIyWlLk6GJQsqaUBKTNV-0" />
        <mxCell id="zNRL3hvFCWsXp410hIXS-46" style="edgeStyle=orthogonalEdgeStyle;rounded=0;orthogonalLoop=1;jettySize=auto;html=1;entryX=0.5;entryY=0;entryDx=0;entryDy=0;" edge="1" parent="WIyWlLk6GJQsqaUBKTNV-1" source="zNRL3hvFCWsXp410hIXS-1" target="zNRL3hvFCWsXp410hIXS-43">
          <mxGeometry relative="1" as="geometry" />
        </mxCell>
        <mxCell id="zNRL3hvFCWsXp410hIXS-1" value="&lt;font style=&quot;font-size: 12px;&quot;&gt;Start&lt;/font&gt;" style="strokeWidth=1.2;html=1;shape=mxgraph.flowchart.terminator;whiteSpace=wrap;fontFamily=Poppins;labelBorderColor=none;labelBackgroundColor=none;fontSource=https%3A%2F%2Ffonts.googleapis.com%2Fcss%3Ffamily%3DPoppins;fontSize=12;fontStyle=0" vertex="1" parent="WIyWlLk6GJQsqaUBKTNV-1">
          <mxGeometry x="345" y="590" width="100" height="60" as="geometry" />
        </mxCell>
        <mxCell id="zNRL3hvFCWsXp410hIXS-2" value="&lt;font&gt;End&lt;/font&gt;" style="strokeWidth=1.2;html=1;shape=mxgraph.flowchart.terminator;whiteSpace=wrap;fontFamily=Poppins;labelBorderColor=none;labelBackgroundColor=none;fontSource=https%3A%2F%2Ffonts.googleapis.com%2Fcss%3Ffamily%3DPoppins;fontStyle=0" vertex="1" parent="WIyWlLk6GJQsqaUBKTNV-1">
          <mxGeometry x="1030" y="1185" width="100" height="60" as="geometry" />
        </mxCell>
        <mxCell id="zNRL3hvFCWsXp410hIXS-3" value="&lt;font&gt;Pasien memilih pilihan pasien baru atau lama&lt;br&gt;&lt;/font&gt;" style="rounded=1;whiteSpace=wrap;html=1;absoluteArcSize=1;arcSize=0;strokeWidth=1.2;strokeColor=default;perimeterSpacing=0;fontFamily=Poppins;labelBorderColor=none;labelBackgroundColor=none;fontSource=https%3A%2F%2Ffonts.googleapis.com%2Fcss%3Ffamily%3DPoppins;fontStyle=0" vertex="1" parent="WIyWlLk6GJQsqaUBKTNV-1">
          <mxGeometry x="315" y="800" width="160" height="70" as="geometry" />
        </mxCell>
        <mxCell id="zNRL3hvFCWsXp410hIXS-4" style="edgeStyle=orthogonalEdgeStyle;rounded=0;orthogonalLoop=1;jettySize=auto;html=1;entryX=0.5;entryY=0;entryDx=0;entryDy=0;fontFamily=Poppins;labelBorderColor=none;labelBackgroundColor=none;fontSource=https%3A%2F%2Ffonts.googleapis.com%2Fcss%3Ffamily%3DPoppins;fontStyle=0" edge="1" parent="WIyWlLk6GJQsqaUBKTNV-1" source="zNRL3hvFCWsXp410hIXS-8" target="zNRL3hvFCWsXp410hIXS-11">
          <mxGeometry relative="1" as="geometry" />
        </mxCell>
        <mxCell id="zNRL3hvFCWsXp410hIXS-5" value="ya" style="edgeLabel;html=1;align=center;verticalAlign=middle;resizable=0;points=[];fontFamily=Poppins;labelBorderColor=none;labelBackgroundColor=none;fontSource=https%3A%2F%2Ffonts.googleapis.com%2Fcss%3Ffamily%3DPoppins;fontStyle=0" vertex="1" connectable="0" parent="zNRL3hvFCWsXp410hIXS-4">
          <mxGeometry x="-0.12" y="-2" relative="1" as="geometry">
            <mxPoint x="-23" y="-2" as="offset" />
          </mxGeometry>
        </mxCell>
        <mxCell id="zNRL3hvFCWsXp410hIXS-6" style="edgeStyle=orthogonalEdgeStyle;rounded=0;orthogonalLoop=1;jettySize=auto;html=1;entryX=0.5;entryY=0;entryDx=0;entryDy=0;exitX=0;exitY=0.5;exitDx=0;exitDy=0;exitPerimeter=0;fontFamily=Poppins;labelBorderColor=none;labelBackgroundColor=none;fontSource=https%3A%2F%2Ffonts.googleapis.com%2Fcss%3Ffamily%3DPoppins;fontStyle=0" edge="1" parent="WIyWlLk6GJQsqaUBKTNV-1" source="zNRL3hvFCWsXp410hIXS-8" target="zNRL3hvFCWsXp410hIXS-13">
          <mxGeometry relative="1" as="geometry">
            <mxPoint x="300" y="1000" as="sourcePoint" />
          </mxGeometry>
        </mxCell>
        <mxCell id="zNRL3hvFCWsXp410hIXS-7" value="tidak" style="edgeLabel;html=1;align=center;verticalAlign=middle;resizable=0;points=[];fontFamily=Poppins;labelBorderColor=none;labelBackgroundColor=none;fontSource=https%3A%2F%2Ffonts.googleapis.com%2Fcss%3Ffamily%3DPoppins;fontStyle=0" vertex="1" connectable="0" parent="zNRL3hvFCWsXp410hIXS-6">
          <mxGeometry x="-0.4237" y="1" relative="1" as="geometry">
            <mxPoint y="-21" as="offset" />
          </mxGeometry>
        </mxCell>
        <mxCell id="zNRL3hvFCWsXp410hIXS-8" value="Pasien Baru?" style="strokeWidth=1.2;html=1;shape=mxgraph.flowchart.decision;whiteSpace=wrap;fontFamily=Poppins;labelBorderColor=none;labelBackgroundColor=none;fontSource=https%3A%2F%2Ffonts.googleapis.com%2Fcss%3Ffamily%3DPoppins;fontStyle=0" vertex="1" parent="WIyWlLk6GJQsqaUBKTNV-1">
          <mxGeometry x="345" y="920" width="100" height="100" as="geometry" />
        </mxCell>
        <mxCell id="zNRL3hvFCWsXp410hIXS-9" style="edgeStyle=orthogonalEdgeStyle;rounded=0;orthogonalLoop=1;jettySize=auto;html=1;entryX=0.5;entryY=0;entryDx=0;entryDy=0;entryPerimeter=0;fontFamily=Poppins;labelBorderColor=none;labelBackgroundColor=none;fontSource=https%3A%2F%2Ffonts.googleapis.com%2Fcss%3Ffamily%3DPoppins;fontStyle=0" edge="1" parent="WIyWlLk6GJQsqaUBKTNV-1" source="zNRL3hvFCWsXp410hIXS-3" target="zNRL3hvFCWsXp410hIXS-8">
          <mxGeometry relative="1" as="geometry" />
        </mxCell>
        <mxCell id="zNRL3hvFCWsXp410hIXS-10" style="edgeStyle=orthogonalEdgeStyle;rounded=0;orthogonalLoop=1;jettySize=auto;html=1;entryX=0.5;entryY=0;entryDx=0;entryDy=0;fontFamily=Poppins;labelBorderColor=none;labelBackgroundColor=none;fontSource=https%3A%2F%2Ffonts.googleapis.com%2Fcss%3Ffamily%3DPoppins;fontStyle=0" edge="1" parent="WIyWlLk6GJQsqaUBKTNV-1" source="zNRL3hvFCWsXp410hIXS-11" target="zNRL3hvFCWsXp410hIXS-14">
          <mxGeometry relative="1" as="geometry" />
        </mxCell>
        <mxCell id="zNRL3hvFCWsXp410hIXS-11" value="&lt;font&gt;Pasien mengisi &lt;br&gt;data lengkap&lt;/font&gt;" style="rounded=1;whiteSpace=wrap;html=1;absoluteArcSize=1;arcSize=0;strokeWidth=1.2;strokeColor=default;perimeterSpacing=0;fontFamily=Poppins;labelBorderColor=none;labelBackgroundColor=none;fontSource=https%3A%2F%2Ffonts.googleapis.com%2Fcss%3Ffamily%3DPoppins;fontStyle=0" vertex="1" parent="WIyWlLk6GJQsqaUBKTNV-1">
          <mxGeometry x="315" y="1060" width="160" height="70" as="geometry" />
        </mxCell>
        <mxCell id="zNRL3hvFCWsXp410hIXS-12" style="edgeStyle=orthogonalEdgeStyle;rounded=0;orthogonalLoop=1;jettySize=auto;html=1;entryX=0;entryY=0.5;entryDx=0;entryDy=0;exitX=0.5;exitY=1;exitDx=0;exitDy=0;fontFamily=Poppins;labelBorderColor=none;labelBackgroundColor=none;fontSource=https%3A%2F%2Ffonts.googleapis.com%2Fcss%3Ffamily%3DPoppins;fontStyle=0" edge="1" parent="WIyWlLk6GJQsqaUBKTNV-1" source="zNRL3hvFCWsXp410hIXS-13" target="zNRL3hvFCWsXp410hIXS-14">
          <mxGeometry relative="1" as="geometry" />
        </mxCell>
        <mxCell id="zNRL3hvFCWsXp410hIXS-13" value="&lt;font&gt;Pasien mengisi No Rekam Medis&lt;br&gt;&lt;/font&gt;" style="rounded=1;whiteSpace=wrap;html=1;absoluteArcSize=1;arcSize=0;strokeWidth=1.2;strokeColor=default;perimeterSpacing=0;fontFamily=Poppins;labelBorderColor=none;labelBackgroundColor=none;fontSource=https%3A%2F%2Ffonts.googleapis.com%2Fcss%3Ffamily%3DPoppins;fontStyle=0" vertex="1" parent="WIyWlLk6GJQsqaUBKTNV-1">
          <mxGeometry x="110" y="1060" width="160" height="70" as="geometry" />
        </mxCell>
        <mxCell id="zNRL3hvFCWsXp410hIXS-14" value="&lt;font&gt;Pasien mengisi No Whatsapp, pilihan hari dan waktu kontrol&lt;br&gt;dan dokter.&lt;br&gt;&lt;/font&gt;" style="rounded=1;whiteSpace=wrap;html=1;absoluteArcSize=1;arcSize=0;strokeWidth=1.2;strokeColor=default;perimeterSpacing=0;fontFamily=Poppins;labelBorderColor=none;labelBackgroundColor=none;fontSource=https%3A%2F%2Ffonts.googleapis.com%2Fcss%3Ffamily%3DPoppins;fontStyle=0" vertex="1" parent="WIyWlLk6GJQsqaUBKTNV-1">
          <mxGeometry x="315" y="1175" width="160" height="70" as="geometry" />
        </mxCell>
        <mxCell id="zNRL3hvFCWsXp410hIXS-15" style="edgeStyle=orthogonalEdgeStyle;rounded=0;orthogonalLoop=1;jettySize=auto;html=1;entryX=0.5;entryY=0;entryDx=0;entryDy=0;fontFamily=Poppins;labelBorderColor=none;labelBackgroundColor=none;fontSource=https%3A%2F%2Ffonts.googleapis.com%2Fcss%3Ffamily%3DPoppins;fontStyle=0" edge="1" parent="WIyWlLk6GJQsqaUBKTNV-1" source="zNRL3hvFCWsXp410hIXS-17" target="zNRL3hvFCWsXp410hIXS-19">
          <mxGeometry relative="1" as="geometry" />
        </mxCell>
        <mxCell id="zNRL3hvFCWsXp410hIXS-16" value="&lt;div&gt;ya&lt;/div&gt;" style="edgeLabel;html=1;align=center;verticalAlign=middle;resizable=0;points=[];fontFamily=Poppins;labelBorderColor=none;labelBackgroundColor=none;fontSource=https%3A%2F%2Ffonts.googleapis.com%2Fcss%3Ffamily%3DPoppins;fontStyle=0" vertex="1" connectable="0" parent="zNRL3hvFCWsXp410hIXS-15">
          <mxGeometry x="-0.5414" y="2" relative="1" as="geometry">
            <mxPoint x="-17" y="13" as="offset" />
          </mxGeometry>
        </mxCell>
        <mxCell id="zNRL3hvFCWsXp410hIXS-17" value="Data Valid?" style="strokeWidth=1.2;html=1;shape=mxgraph.flowchart.decision;whiteSpace=wrap;fontFamily=Poppins;labelBorderColor=none;labelBackgroundColor=none;fontSource=https%3A%2F%2Ffonts.googleapis.com%2Fcss%3Ffamily%3DPoppins;fontStyle=0" vertex="1" parent="WIyWlLk6GJQsqaUBKTNV-1">
          <mxGeometry x="601.88" y="1000" width="100" height="100" as="geometry" />
        </mxCell>
        <mxCell id="zNRL3hvFCWsXp410hIXS-19" value="&lt;font&gt;nomor&lt;br&gt;pendaftaran&lt;/font&gt;" style="shape=parallelogram;html=1;strokeWidth=1.2;perimeter=parallelogramPerimeter;whiteSpace=wrap;rounded=1;arcSize=12;size=0.23;spacing=10;spacingLeft=30;spacingRight=30;fontFamily=Poppins;labelBorderColor=none;labelBackgroundColor=none;fontSource=https%3A%2F%2Ffonts.googleapis.com%2Fcss%3Ffamily%3DPoppins;fontStyle=0" vertex="1" parent="WIyWlLk6GJQsqaUBKTNV-1">
          <mxGeometry x="584.39" y="1150" width="134.99" height="55" as="geometry" />
        </mxCell>
        <mxCell id="zNRL3hvFCWsXp410hIXS-20" style="edgeStyle=orthogonalEdgeStyle;rounded=0;orthogonalLoop=1;jettySize=auto;html=1;entryX=0;entryY=0.5;entryDx=0;entryDy=0;entryPerimeter=0;fontFamily=Poppins;labelBorderColor=none;labelBackgroundColor=none;fontSource=https%3A%2F%2Ffonts.googleapis.com%2Fcss%3Ffamily%3DPoppins;fontStyle=0" edge="1" parent="WIyWlLk6GJQsqaUBKTNV-1" source="zNRL3hvFCWsXp410hIXS-14" target="zNRL3hvFCWsXp410hIXS-17">
          <mxGeometry relative="1" as="geometry">
            <Array as="points">
              <mxPoint x="540" y="1210" />
              <mxPoint x="540" y="1050" />
            </Array>
          </mxGeometry>
        </mxCell>
        <mxCell id="zNRL3hvFCWsXp410hIXS-21" style="edgeStyle=orthogonalEdgeStyle;rounded=0;orthogonalLoop=1;jettySize=auto;html=1;entryX=1;entryY=0.5;entryDx=0;entryDy=0;entryPerimeter=0;exitX=0.5;exitY=0;exitDx=0;exitDy=0;exitPerimeter=0;fontFamily=Poppins;labelBorderColor=none;labelBackgroundColor=none;fontSource=https%3A%2F%2Ffonts.googleapis.com%2Fcss%3Ffamily%3DPoppins;fontStyle=0" edge="1" parent="WIyWlLk6GJQsqaUBKTNV-1" source="zNRL3hvFCWsXp410hIXS-17" target="zNRL3hvFCWsXp410hIXS-8">
          <mxGeometry relative="1" as="geometry">
            <mxPoint x="610" y="990" as="sourcePoint" />
            <mxPoint x="400" y="890" as="targetPoint" />
            <Array as="points">
              <mxPoint x="652" y="970" />
            </Array>
          </mxGeometry>
        </mxCell>
        <mxCell id="zNRL3hvFCWsXp410hIXS-22" value="tidak" style="text;html=1;align=center;verticalAlign=middle;resizable=0;points=[];autosize=1;strokeColor=none;fillColor=none;fontFamily=Poppins;labelBorderColor=none;labelBackgroundColor=none;fontSource=https%3A%2F%2Ffonts.googleapis.com%2Fcss%3Ffamily%3DPoppins;fontStyle=0" vertex="1" parent="WIyWlLk6GJQsqaUBKTNV-1">
          <mxGeometry x="540" y="940" width="50" height="30" as="geometry" />
        </mxCell>
        <mxCell id="zNRL3hvFCWsXp410hIXS-27" value="&lt;font&gt;Pasien registrasi ulang di mesin APM&lt;br&gt;&lt;/font&gt;" style="rounded=1;whiteSpace=wrap;html=1;absoluteArcSize=1;arcSize=0;strokeWidth=1.2;strokeColor=default;perimeterSpacing=0;fontFamily=Poppins;labelBorderColor=none;labelBackgroundColor=none;fontSource=https%3A%2F%2Ffonts.googleapis.com%2Fcss%3Ffamily%3DPoppins;fontStyle=0" vertex="1" parent="WIyWlLk6GJQsqaUBKTNV-1">
          <mxGeometry x="790" y="1000" width="160" height="70" as="geometry" />
        </mxCell>
        <mxCell id="zNRL3hvFCWsXp410hIXS-28" value="&lt;font&gt;Pasien registrasi ulang di loket registrasi pendaftaran online&lt;br&gt;&lt;/font&gt;" style="rounded=1;whiteSpace=wrap;html=1;absoluteArcSize=1;arcSize=0;strokeWidth=1.2;strokeColor=default;perimeterSpacing=0;fontFamily=Poppins;labelBorderColor=none;labelBackgroundColor=none;fontSource=https%3A%2F%2Ffonts.googleapis.com%2Fcss%3Ffamily%3DPoppins;fontStyle=0" vertex="1" parent="WIyWlLk6GJQsqaUBKTNV-1">
          <mxGeometry x="1000" y="865" width="160" height="70" as="geometry" />
        </mxCell>
        <mxCell id="zNRL3hvFCWsXp410hIXS-30" style="edgeStyle=orthogonalEdgeStyle;rounded=0;orthogonalLoop=1;jettySize=auto;html=1;entryX=0.5;entryY=0;entryDx=0;entryDy=0;entryPerimeter=0;fontFamily=Poppins;labelBorderColor=none;labelBackgroundColor=none;fontSource=https%3A%2F%2Ffonts.googleapis.com%2Fcss%3Ffamily%3DPoppins;fontStyle=0" edge="1" parent="WIyWlLk6GJQsqaUBKTNV-1" source="zNRL3hvFCWsXp410hIXS-28" target="zNRL3hvFCWsXp410hIXS-2">
          <mxGeometry relative="1" as="geometry" />
        </mxCell>
        <mxCell id="zNRL3hvFCWsXp410hIXS-31" style="edgeStyle=orthogonalEdgeStyle;rounded=0;orthogonalLoop=1;jettySize=auto;html=1;entryX=0;entryY=0.5;entryDx=0;entryDy=0;entryPerimeter=0;fontFamily=Poppins;labelBorderColor=none;labelBackgroundColor=none;fontSource=https%3A%2F%2Ffonts.googleapis.com%2Fcss%3Ffamily%3DPoppins;fontStyle=0" edge="1" parent="WIyWlLk6GJQsqaUBKTNV-1" source="zNRL3hvFCWsXp410hIXS-27" target="zNRL3hvFCWsXp410hIXS-2">
          <mxGeometry relative="1" as="geometry">
            <Array as="points">
              <mxPoint x="870" y="1215" />
            </Array>
          </mxGeometry>
        </mxCell>
        <mxCell id="zNRL3hvFCWsXp410hIXS-33" value="" style="edgeStyle=orthogonalEdgeStyle;rounded=0;orthogonalLoop=1;jettySize=auto;html=1;entryX=0.515;entryY=0.988;entryDx=0;entryDy=0;fontFamily=Poppins;labelBorderColor=none;labelBackgroundColor=none;fontSource=https%3A%2F%2Ffonts.googleapis.com%2Fcss%3Ffamily%3DPoppins;fontStyle=0;entryPerimeter=0;" edge="1" parent="WIyWlLk6GJQsqaUBKTNV-1" source="zNRL3hvFCWsXp410hIXS-19" target="zNRL3hvFCWsXp410hIXS-48">
          <mxGeometry relative="1" as="geometry">
            <mxPoint x="900" y="880" as="targetPoint" />
            <Array as="points">
              <mxPoint x="652" y="1220" />
              <mxPoint x="760" y="1220" />
              <mxPoint x="760" y="1139" />
            </Array>
            <mxPoint x="728" y="1220" as="sourcePoint" />
          </mxGeometry>
        </mxCell>
        <mxCell id="zNRL3hvFCWsXp410hIXS-35" style="edgeStyle=orthogonalEdgeStyle;rounded=0;orthogonalLoop=1;jettySize=auto;html=1;entryX=0.5;entryY=0;entryDx=0;entryDy=0;fontFamily=Poppins;fontSource=https%3A%2F%2Ffonts.googleapis.com%2Fcss%3Ffamily%3DPoppins;" edge="1" parent="WIyWlLk6GJQsqaUBKTNV-1" source="zNRL3hvFCWsXp410hIXS-26" target="zNRL3hvFCWsXp410hIXS-27">
          <mxGeometry relative="1" as="geometry" />
        </mxCell>
        <mxCell id="zNRL3hvFCWsXp410hIXS-37" style="edgeStyle=orthogonalEdgeStyle;rounded=0;orthogonalLoop=1;jettySize=auto;html=1;entryX=0.5;entryY=0;entryDx=0;entryDy=0;fontFamily=Poppins;fontSource=https%3A%2F%2Ffonts.googleapis.com%2Fcss%3Ffamily%3DPoppins;" edge="1" parent="WIyWlLk6GJQsqaUBKTNV-1" source="zNRL3hvFCWsXp410hIXS-32" target="zNRL3hvFCWsXp410hIXS-28">
          <mxGeometry relative="1" as="geometry" />
        </mxCell>
        <mxCell id="zNRL3hvFCWsXp410hIXS-38" value="tidak" style="edgeLabel;html=1;align=center;verticalAlign=middle;resizable=0;points=[];fontFamily=Poppins;fontSource=https%3A%2F%2Ffonts.googleapis.com%2Fcss%3Ffamily%3DPoppins;" vertex="1" connectable="0" parent="zNRL3hvFCWsXp410hIXS-37">
          <mxGeometry x="-0.6083" relative="1" as="geometry">
            <mxPoint x="2" y="-20" as="offset" />
          </mxGeometry>
        </mxCell>
        <mxCell id="zNRL3hvFCWsXp410hIXS-39" value="ya" style="edgeLabel;html=1;align=center;verticalAlign=middle;resizable=0;points=[];fontFamily=Poppins;fontSource=https%3A%2F%2Ffonts.googleapis.com%2Fcss%3Ffamily%3DPoppins;" vertex="1" connectable="0" parent="zNRL3hvFCWsXp410hIXS-37">
          <mxGeometry x="-0.6083" relative="1" as="geometry">
            <mxPoint x="-124" y="70" as="offset" />
          </mxGeometry>
        </mxCell>
        <mxCell id="zNRL3hvFCWsXp410hIXS-40" value="ya" style="edgeLabel;html=1;align=center;verticalAlign=middle;resizable=0;points=[];fontFamily=Poppins;fontSource=https%3A%2F%2Ffonts.googleapis.com%2Fcss%3Ffamily%3DPoppins;" vertex="1" connectable="0" parent="zNRL3hvFCWsXp410hIXS-37">
          <mxGeometry x="-0.6083" relative="1" as="geometry">
            <mxPoint x="-124" y="220" as="offset" />
          </mxGeometry>
        </mxCell>
        <mxCell id="zNRL3hvFCWsXp410hIXS-42" value="tidak" style="edgeLabel;html=1;align=center;verticalAlign=middle;resizable=0;points=[];fontFamily=Poppins;fontSource=https%3A%2F%2Ffonts.googleapis.com%2Fcss%3Ffamily%3DPoppins;" vertex="1" connectable="0" parent="zNRL3hvFCWsXp410hIXS-37">
          <mxGeometry x="-0.6083" relative="1" as="geometry">
            <mxPoint x="-24" y="130" as="offset" />
          </mxGeometry>
        </mxCell>
        <mxCell id="zNRL3hvFCWsXp410hIXS-32" value="Pasien Lama?" style="strokeWidth=1.2;html=1;shape=mxgraph.flowchart.decision;whiteSpace=wrap;fontFamily=Poppins;labelBorderColor=none;labelBackgroundColor=none;fontSource=https%3A%2F%2Ffonts.googleapis.com%2Fcss%3Ffamily%3DPoppins;fontStyle=0" vertex="1" parent="WIyWlLk6GJQsqaUBKTNV-1">
          <mxGeometry x="820" y="700" width="100" height="100" as="geometry" />
        </mxCell>
        <mxCell id="zNRL3hvFCWsXp410hIXS-36" value="" style="edgeStyle=orthogonalEdgeStyle;rounded=0;orthogonalLoop=1;jettySize=auto;html=1;entryX=0.5;entryY=0;entryDx=0;entryDy=0;fontFamily=Poppins;fontSource=https%3A%2F%2Ffonts.googleapis.com%2Fcss%3Ffamily%3DPoppins;" edge="1" parent="WIyWlLk6GJQsqaUBKTNV-1" source="zNRL3hvFCWsXp410hIXS-32" target="zNRL3hvFCWsXp410hIXS-26">
          <mxGeometry relative="1" as="geometry">
            <mxPoint x="870" y="830" as="sourcePoint" />
            <mxPoint x="870" y="1000" as="targetPoint" />
          </mxGeometry>
        </mxCell>
        <mxCell id="zNRL3hvFCWsXp410hIXS-41" style="edgeStyle=orthogonalEdgeStyle;rounded=0;orthogonalLoop=1;jettySize=auto;html=1;entryX=0;entryY=0.5;entryDx=0;entryDy=0;fontFamily=Poppins;fontSource=https%3A%2F%2Ffonts.googleapis.com%2Fcss%3Ffamily%3DPoppins;" edge="1" parent="WIyWlLk6GJQsqaUBKTNV-1" source="zNRL3hvFCWsXp410hIXS-26" target="zNRL3hvFCWsXp410hIXS-28">
          <mxGeometry relative="1" as="geometry" />
        </mxCell>
        <mxCell id="zNRL3hvFCWsXp410hIXS-26" value="Punya BPJS?" style="strokeWidth=1.2;html=1;shape=mxgraph.flowchart.decision;whiteSpace=wrap;fontFamily=Poppins;labelBorderColor=none;labelBackgroundColor=none;fontSource=https%3A%2F%2Ffonts.googleapis.com%2Fcss%3Ffamily%3DPoppins;fontStyle=0" vertex="1" parent="WIyWlLk6GJQsqaUBKTNV-1">
          <mxGeometry x="820" y="850" width="100" height="100" as="geometry" />
        </mxCell>
        <mxCell id="zNRL3hvFCWsXp410hIXS-47" style="edgeStyle=orthogonalEdgeStyle;rounded=0;orthogonalLoop=1;jettySize=auto;html=1;entryX=0.5;entryY=0;entryDx=0;entryDy=0;" edge="1" parent="WIyWlLk6GJQsqaUBKTNV-1" source="zNRL3hvFCWsXp410hIXS-43" target="zNRL3hvFCWsXp410hIXS-3">
          <mxGeometry relative="1" as="geometry" />
        </mxCell>
        <mxCell id="zNRL3hvFCWsXp410hIXS-43" value="&lt;font&gt;Pasien membuka website&lt;br&gt;&lt;/font&gt;" style="rounded=1;whiteSpace=wrap;html=1;absoluteArcSize=1;arcSize=0;strokeWidth=1.2;strokeColor=default;perimeterSpacing=0;fontFamily=Poppins;labelBorderColor=none;labelBackgroundColor=none;fontSource=https%3A%2F%2Ffonts.googleapis.com%2Fcss%3Ffamily%3DPoppins;fontStyle=0" vertex="1" parent="WIyWlLk6GJQsqaUBKTNV-1">
          <mxGeometry x="315" y="690" width="160" height="70" as="geometry" />
        </mxCell>
        <mxCell id="zNRL3hvFCWsXp410hIXS-48" value="&lt;font&gt;detail pendaftaran &lt;/font&gt;" style="shape=parallelogram;html=1;strokeWidth=1.2;perimeter=parallelogramPerimeter;whiteSpace=wrap;rounded=1;arcSize=12;size=0.23;spacing=10;spacingLeft=30;spacingRight=30;fontFamily=Poppins;labelBorderColor=none;labelBackgroundColor=none;fontSource=https%3A%2F%2Ffonts.googleapis.com%2Fcss%3Ffamily%3DPoppins;fontStyle=0" vertex="1" parent="WIyWlLk6GJQsqaUBKTNV-1">
          <mxGeometry x="689" y="1080" width="138.12" height="60" as="geometry" />
        </mxCell>
        <mxCell id="zNRL3hvFCWsXp410hIXS-50" style="edgeStyle=orthogonalEdgeStyle;rounded=0;orthogonalLoop=1;jettySize=auto;html=1;entryX=0;entryY=0.5;entryDx=0;entryDy=0;entryPerimeter=0;" edge="1" parent="WIyWlLk6GJQsqaUBKTNV-1" source="zNRL3hvFCWsXp410hIXS-48" target="zNRL3hvFCWsXp410hIXS-32">
          <mxGeometry relative="1" as="geometry" />
        </mxCell>
      </root>
    </mxGraphModel>
  </diagram>
</mxfile>
